<svg width="23" height="22" viewBox="0 0 23 22" fill="none" xmlns="http://www.w3.org/2000/svg">
<path d="M9.27265 15.2004C8.80838 14.0566 7.68634 13.25 6.37592 13.25C4.65003 13.25 3.25092 14.6491 3.25092 16.375C3.25092 17.6694 2.20156 18.7188 0.90714 18.7188C0.854334 18.7188 0.801936 18.717 0.75 18.7136C1.55975 20.1175 3.07621 21.0625 4.81339 21.0625C7.39488 21.0625 9.48898 18.9757 9.50084 16.397C9.50089 16.3897 9.50092 16.3823 9.50092 16.375C9.50092 15.9595 9.41984 15.563 9.27265 15.2004ZM9.27265 15.2004C10.5167 14.7764 11.7001 14.2088 12.8004 13.5133M7.54779 13.4863C7.97206 12.2393 8.5406 11.0532 9.23763 9.95054M12.8004 13.5133C14.7592 12.2751 16.4549 10.6315 17.762 8.67089L21.7995 2.61465C21.9308 2.41763 22.0009 2.18615 22.0009 1.94936C22.0009 1.28697 21.4639 0.75 20.8016 0.75C20.5648 0.75 20.3333 0.820089 20.1363 0.951433L14.08 4.98893C12.1195 6.29597 10.4758 7.9917 9.23763 9.95054M12.8004 13.5133C12.0943 11.9305 10.8204 10.6566 9.23763 9.95054" stroke="#267B8A" stroke-width="1.5" stroke-linecap="round" stroke-linejoin="round"/>
</svg>
