<svg width="20" height="20" viewBox="0 0 20 20" fill="none" xmlns="http://www.w3.org/2000/svg">
<path d="M6.75 15V16.0074C6.75 16.803 6.43393 17.5661 5.87132 18.1287L5.25 18.75H14.25L13.6287 18.1287C13.0661 17.5661 12.75 16.803 12.75 16.0074V15M18.75 3V12.75C18.75 13.9926 17.7426 15 16.5 15H3C1.75736 15 0.75 13.9926 0.75 12.75V3M18.75 3C18.75 1.75736 17.7426 0.75 16.5 0.75H3C1.75736 0.75 0.75 1.75736 0.75 3M18.75 3V9.75C18.75 10.9926 17.7426 12 16.5 12H3C1.75736 12 0.75 10.9926 0.75 9.75V3" stroke="#DA8700" stroke-width="1.5" stroke-linecap="round" stroke-linejoin="round"/>
</svg>
