<svg width="46" height="46" viewBox="0 0 46 46" fill="none" xmlns="http://www.w3.org/2000/svg">
<path d="M32.6353 0H13.3623C4.99073 0 0 4.99073 0 13.3623V32.6123C0 41.0068 4.99073 45.9975 13.3623 45.9975H32.6123C40.9838 45.9975 45.9745 41.0068 45.9745 32.6353V13.3623C45.9975 4.99073 41.0068 0 32.6353 0ZM22.9988 31.9223C18.077 31.9223 14.0752 27.9205 14.0752 22.9988C14.0752 18.077 18.077 14.0752 22.9988 14.0752C27.9205 14.0752 31.9223 18.077 31.9223 22.9988C31.9223 27.9205 27.9205 31.9223 22.9988 31.9223ZM36.614 11.2234C36.4991 11.4994 36.3381 11.7524 36.1311 11.9824C35.9011 12.1893 35.6481 12.3503 35.3721 12.4653C35.0961 12.5803 34.7971 12.6493 34.4982 12.6493C33.8772 12.6493 33.3022 12.4193 32.8652 11.9824C32.6583 11.7524 32.4973 11.4994 32.3823 11.2234C32.2673 10.9474 32.1983 10.6484 32.1983 10.3494C32.1983 10.0505 32.2673 9.75148 32.3823 9.47549C32.4973 9.17651 32.6583 8.94652 32.8652 8.71653C33.3942 8.18756 34.1992 7.93458 34.9351 8.09557C35.0961 8.11857 35.2341 8.16456 35.3721 8.23356C35.5101 8.27956 35.6481 8.34855 35.7861 8.44055C35.9011 8.50954 36.0161 8.62454 36.1311 8.71653C36.3381 8.94652 36.4991 9.17651 36.614 9.47549C36.729 9.75148 36.798 10.0505 36.798 10.3494C36.798 10.6484 36.729 10.9474 36.614 11.2234Z" fill="#DBF8C7"/>
</svg>
