<svg width="1440" height="53" viewBox="0 0 1440 53" fill="none" xmlns="http://www.w3.org/2000/svg">
<path d="M0 1.50399C0.0469436 1.49633 64.3772 -8.98942 95.1865 25.5206C95.1865 25.5206 174.366 -2.51144 216.394 33.5128C216.496 33.4991 254.514 28.4464 268.205 44.004C270.558 38.508 325.748 -7.37885 395.473 25.5206C395.473 25.5206 479.839 -2.51157 521.07 33.5128C521.216 33.493 555.766 28.8234 570.312 42.3575C577.206 33.7538 630.453 -6.45032 696.902 24.9034C696.902 24.9034 781.268 -3.12859 822.5 32.8956C822.582 32.8845 844.374 29.9331 860.644 35.4805C878.887 21.8632 924.713 -0.957368 979.521 24.9034C979.521 24.9034 1063.89 -3.12876 1105.12 32.8956C1105.24 32.8791 1126.2 30.0478 1142.34 35.1778C1161.62 21.484 1206.34 0.751017 1259.51 25.8409C1259.66 25.7908 1343.92 -2.15847 1385.11 33.8331C1385.11 33.8331 1433.61 27.2317 1440 52.0899H1135.79L1135.35 51.1524H575.79C575.849 51.3559 575.906 51.5618 575.959 51.7696H0V1.50399Z" fill="#B7C9F5"/>
</svg>
