<svg width="375" height="14" viewBox="0 0 375 14" fill="none" xmlns="http://www.w3.org/2000/svg">
<path d="M375 13.1738C374.983 13.1766 358.234 15.9047 350.212 6.91895C350.212 6.91895 329.592 14.2192 318.647 4.83789C318.609 4.84278 308.688 6.09209 305.129 2.01562L305.161 2.09082C304.647 3.44975 290.236 15.5178 272.013 6.91895C272.013 6.91895 250.042 14.2192 239.305 4.83789C239.268 4.84269 230.289 6.01678 226.6 2.37305C225.427 4.20074 211.283 15.4641 193.515 7.08008C193.411 7.1144 171.52 14.3579 160.808 4.99902C160.808 4.99902 155.264 5.64551 151.035 4.20312C146.398 7.73225 134.354 13.8922 119.917 7.08008C119.917 7.08008 97.9464 14.3803 87.209 4.99902C87.1706 5.00351 81.8628 5.61894 77.7051 4.2666C72.7934 7.82851 61.0274 13.4539 47.002 6.83594C47.002 6.83594 25.0314 14.1362 14.2939 4.75488C14.2043 4.767 1.65811 6.45036 0 0H375V13.1738Z" fill="#FFBB2C"/>
</svg>
