<svg width="743" height="626" viewBox="0 0 743 626" fill="none" xmlns="http://www.w3.org/2000/svg">
<g clip-path="url(#clip0_126_1304)">
<path fill-rule="evenodd" clip-rule="evenodd" d="M105.012 420.265C105.012 420.265 75.843 464.333 141.969 489.141C208.1 513.95 240.17 510.098 240.17 510.098C240.17 510.098 319.944 516.328 371.045 514.744C422.147 513.161 529.5 495.73 529.5 495.73C529.5 495.73 585.481 480.248 597.398 459.713C609.312 439.175 609.778 433.043 606.533 424.93C603.288 416.817 591.26 372.791 591.26 372.791C591.26 372.791 577.063 351.901 574.834 350.075C572.602 348.249 571.995 347.033 571.995 347.033C571.995 347.033 572.169 329.853 571.915 324.02C571.661 318.19 571.813 309.079 571.813 309.079C571.813 309.079 564.056 274.644 558.214 269.776C552.372 264.909 550.1 255.335 549.939 249.494C549.775 243.653 545.283 230.726 531.472 226.988C517.66 223.249 528.69 198.036 518.389 198.9C508.086 199.764 497.038 209.434 495.308 210.098C493.581 210.763 458.072 218.213 445.904 204.789C433.356 190.945 416.045 184.54 416.045 184.54C416.045 184.54 413.338 176.863 407.119 174.024C400.898 171.184 326.589 150.92 267.171 170.199C207.75 189.477 177.759 207.372 177.759 207.372C177.759 207.372 150.057 216.595 138.969 199.693C127.882 182.791 89.5097 160.273 81.9808 158.716C74.452 157.158 21.0391 138.631 21.0391 138.631C21.0391 138.631 22.6954 178.409 26.0757 186.657C29.4563 194.906 48.9695 226.248 48.9695 226.248L86.5002 257.542C86.5002 257.542 102.215 290.468 103.482 299.344C104.75 308.216 101.609 376.437 107.102 387.846C112.596 399.255 112.3 411.169 106.173 418.565C100.046 425.958 97.0953 435.234 96.8061 438.936C96.5168 442.635 105.012 420.265 105.012 420.265Z" fill="white"/>
<path fill-rule="evenodd" clip-rule="evenodd" d="M104.11 305.275C104.11 305.275 145.067 312.48 169.442 277.201C193.817 241.919 203.95 262.997 213.704 271.747C223.263 280.323 240.06 291.41 252.046 291.903C264.035 292.393 289.981 287.797 296.221 275.152C302.46 262.507 308.496 263.706 313.299 261.029C324.176 254.963 323.214 255.248 325.081 245.849C326.276 239.839 320.847 231.997 318.764 226.488C316.146 219.555 310.747 206.976 312.351 198.424C313.956 189.871 319.568 180.249 319.834 176.775C320.103 173.3 318.092 162.513 314.843 162.684C311.592 162.855 271.565 167.302 267.803 169.013C264.037 170.723 219.405 189.85 211.92 194.393C204.437 198.937 176.026 209.217 167.474 210.019C158.921 210.821 146.053 206.673 129.469 191.039C113.499 175.983 77.1775 153.636 72.217 154.662C68.8005 155.369 22.5534 137.591 22.5534 137.591C22.5534 137.591 22.4823 175.047 23.7947 182.459C26.3544 196.917 52.0123 230.49 59.0254 238.038C67.5395 247.203 88.7312 272.402 91.0832 275.609C93.4353 278.817 106.436 303.856 104.11 305.275Z" fill="#54575C"/>
<path fill-rule="evenodd" clip-rule="evenodd" d="M76.3586 156.594C83.5488 149.67 134.992 192.271 145.996 203.817C157.8 216.202 201.003 202.215 209.355 196.369C217.707 190.522 271.185 164.424 284.267 164.146C297.356 163.868 304.662 153.688 352.271 161.762C399.879 169.836 410.18 172.342 410.18 172.342C410.18 172.342 419.064 186.454 427.305 189.794C435.547 193.135 464.476 220.066 483.541 212.582C502.606 205.099 514.367 199.575 515.793 198.862C517.218 198.15 525.334 193.213 524.444 211.21C523.553 229.206 540.556 231.44 545.367 233.578C550.178 235.716 553.229 249.715 552.85 256.207C552.369 264.463 565.625 273.087 575.372 272.545C583.324 272.102 592.704 286.381 592.552 293.526C592.399 300.674 598.331 301.128 605.022 301.89C611.712 302.649 617.396 302.374 620.707 311.13C624.015 319.889 633.108 322.557 635.932 314.868C638.753 307.18 656.321 295.271 666.442 300.232C676.563 305.195 691.659 308.453 688.74 295.51C685.82 282.568 691.522 279.688 689.849 278.167C688.178 276.646 679.787 264.988 679.482 256.93C679.178 248.871 670.957 239.024 661.834 239.024C656.374 239.024 648.635 237.319 641 235.985C635.872 235.09 630.087 234.258 627.338 231.509C622.554 226.724 617.243 213.2 600.984 202.991C593.995 198.602 583.333 195.302 572.531 192.788C564.764 190.98 561.181 185.951 556.529 184.012C539.666 176.984 537.765 172.754 532.999 169.03C529.046 165.94 524.826 165.217 520.144 162.929C517.628 161.698 515.419 162.007 512.049 156.766C506.401 147.98 492.144 140.086 478.966 135.888C469.669 132.926 460.654 132.585 456.721 131.641C447.219 129.36 392.116 99.0516 385.276 95.6307C378.433 92.2095 328.538 75.4213 317.592 80.8951C306.643 86.3687 308.741 88.2695 308.741 88.2695C308.741 88.2695 304.178 91.4514 301.934 82.9194C299.693 74.387 293.22 67.5004 290.537 63.6748C287.832 59.8179 284.545 63.2042 283.063 66.7889C282.322 68.5854 279.304 63.1617 274.164 60.0253C269.517 57.1903 259.334 56.5646 256.504 58.7012C250.542 63.2018 242.626 78.4714 237.872 82.7478C233.124 87.024 197.352 86.5193 195.263 86.5193C193.712 86.5193 190.174 84.0334 186.442 80.3226C185.142 79.0317 182.892 77.0767 182.028 75.2719C178.684 68.2776 163.049 72.9897 159.4 79.6801C155.751 86.3702 157.529 98.4077 145.669 90.9574C133.809 83.5071 121.159 87.1614 127.773 103.27C133.819 117.996 127.337 111.191 122.663 115.232C116.314 120.722 105.648 122.084 112.309 127.862C117.182 132.089 91.4748 124.552 85.1225 132.462C78.7698 140.371 76.0469 156.486 76.0469 156.486" fill="#8DD55A"/>
<path fill-rule="evenodd" clip-rule="evenodd" d="M116.391 175.504C116.391 175.504 122.359 175.115 123.267 165.773C124.176 156.431 117.688 127.627 151.293 135.542C151.293 135.542 156.613 146.441 173.739 143.327C190.867 140.213 198.911 144.365 202.933 147.478C206.955 150.592 218.633 162.919 218.633 162.919C218.633 162.919 228.046 153.55 233.625 151.215C239.204 148.879 267.36 159.389 272.679 161.595C278.001 163.8 279.298 164.968 279.298 164.968L218.577 190.399C218.577 190.399 196.649 201.557 189.642 202.465C182.634 203.373 158.502 209.991 154.999 207.136C151.496 204.282 116.391 175.504 116.391 175.504Z" fill="#90B84E"/>
<path fill-rule="evenodd" clip-rule="evenodd" d="M203.508 196.13C203.508 196.13 211.235 172.562 223.699 169.938C236.166 167.313 233.543 169.281 242.728 160.752C251.911 152.223 234.197 137.788 265.036 118.105C295.871 98.422 315.083 95.5596 315.083 95.5596C315.083 95.5596 283.144 116.662 304.558 125.06C325.975 133.458 334.793 137.657 354.109 136.397C373.425 135.138 381.4 129.259 390.219 130.099C399.037 130.939 423.457 141.095 418.165 144.511C407.811 151.194 406.633 171.097 406.633 171.097C406.633 171.097 375.104 160.332 347.388 160.332C319.675 160.332 268.445 164.111 264.668 168.311C260.888 172.51 203.508 196.13 203.508 196.13Z" fill="#326922"/>
<path fill-rule="evenodd" clip-rule="evenodd" d="M525.433 215.867C525.433 215.867 534.834 225.499 544.238 228.48C553.639 231.461 554.556 236.277 556.621 243.845C558.683 251.413 551.347 255.999 561.665 265.631C571.986 275.262 579.553 270.905 583.679 275.033C587.809 279.161 596.439 280.733 600.315 290.128C604.191 299.52 601.489 299.989 606.772 301.749C612.056 303.512 593.992 301.737 593.523 295.632C593.05 289.524 588.12 276.376 576.965 274.026C565.813 271.678 551.018 267.216 552.661 254.888C554.305 242.559 539.427 227.574 533.788 226.283C528.152 224.991 525.433 215.867 525.433 215.867Z" fill="#5BB342"/>
<path fill-rule="evenodd" clip-rule="evenodd" d="M315.704 85.8654C315.704 85.8654 320.536 84.5013 340.24 88.8671C344.245 89.7543 348.712 90.9962 353.67 92.7004C383.023 102.791 371.405 100.039 404.428 118.996C437.451 137.954 435.861 138.704 448.334 140.172C460.81 141.64 466.927 137.481 479.89 144.575C492.856 151.669 496.035 161.943 508.508 168.303C520.984 174.663 518.049 172.216 525.144 174.907C532.238 177.598 540.844 183.787 550.627 189.902C560.411 196.018 585.975 204.885 595.268 210.022C604.565 215.159 599.673 218.094 611.659 229.102C623.645 240.109 629.027 238.152 646.639 243.289C664.249 248.426 667.918 247.937 670.366 256.254C672.813 264.571 680.744 275.947 681.724 281.427C682.701 286.908 687.399 302.56 687.399 302.56C687.399 302.56 691.322 289.238 689.744 281.335C688.406 274.617 676.501 247.364 672.906 243.189C670.452 240.341 630.924 234.36 624.511 228.304C618.102 222.248 608.482 207.464 604.03 204.435C599.574 201.407 560.823 181.146 557.437 182.749C554.055 184.352 532.393 165.312 529.931 165.849C523.602 167.229 501.895 148.097 502.278 147.829C479.017 134.149 467.45 133.281 458.416 130.295C445.181 125.922 440.409 123.482 437.209 122.904C429.371 121.489 433.677 118.769 421.464 114.596L379.204 93.9199L345.201 84.6122L322.045 81.9727L315.704 85.8654Z" fill="#5BB342"/>
<path fill-rule="evenodd" clip-rule="evenodd" d="M119.873 130.866C119.873 130.866 117.095 122.723 128.228 120.218C139.36 117.713 153.276 123.836 159.399 109.921C165.522 96.0048 158.286 86.8205 170.531 85.9856C182.778 85.1507 186.594 85.9312 190.282 84.4209C194.68 82.6193 167.618 54.5954 157.36 87.142C157.36 87.142 158.004 97.8351 142.762 90.4252C127.476 82.9935 123.867 93.7311 127.743 100.457C131.619 107.183 134.277 106.071 133.022 108.807C131.769 111.543 108.08 122.784 109.562 126.089C111.044 129.395 119.873 130.866 119.873 130.866Z" fill="#326922"/>
<path fill-rule="evenodd" clip-rule="evenodd" d="M654.229 238.197C654.229 238.197 668.91 246.679 669.731 248.411C670.553 250.144 669.092 265.283 673.834 271.85C678.577 278.417 677.343 284.884 675.245 290.448C673.147 296.012 668.315 299.204 664.574 299.386C660.835 299.568 675.424 302.544 677.253 304.582C681.32 309.119 692.424 300.139 689.018 291.817C687.44 287.962 690.574 277.894 689.149 276.613C687.724 275.329 675.669 251.275 675.953 248.14C676.24 245.005 670.78 238.904 654.802 238.532" fill="#326922"/>
<path fill-rule="evenodd" clip-rule="evenodd" d="M361.896 517.813L422.172 516.327L504.753 498.589C504.753 498.589 522.293 494.455 530.907 492.281C540.858 489.772 563.719 481.658 563.719 481.658C563.719 481.658 551.188 467.495 537.244 459.034C523.122 450.46 502.659 443.592 490.032 446.104C464.936 451.097 472.957 458.836 456.746 460.425C440.535 462.015 412.951 457.107 407.397 457.107C401.847 457.107 368.221 467.41 367.777 480.571C367.333 493.733 357.453 513.273 361.896 517.813Z" fill="#54575C"/>
<path fill-rule="evenodd" clip-rule="evenodd" d="M98.2809 440.762C98.2809 440.762 102.914 464.994 128.037 479.783C153.161 494.572 197.161 502.732 197.161 502.732L230.725 507.188C230.725 507.188 229.443 466.279 215.473 458.01C201.503 449.742 189.816 441.76 188.247 437.768C186.679 433.776 185.504 408.654 152.361 399.211C152.361 399.211 116.682 400.565 111.208 409.458C105.734 418.354 96.7575 438.736 98.2809 440.762Z" fill="#FBEB46"/>
<path fill-rule="evenodd" clip-rule="evenodd" d="M427.945 194.463C427.945 194.463 397.653 251.481 434.402 262.172C471.155 272.863 477.391 273.531 488.749 268.409C500.108 263.286 515.7 253.263 531.069 254.822C546.437 256.381 550.445 257.941 550.445 257.941C550.445 257.941 549.999 240.568 545.544 235.89C541.091 231.213 527.283 230.322 525.499 222.082C523.718 213.841 523.272 198.918 518.596 199.363C513.916 199.809 496.991 210.499 483.182 213.172C469.371 215.845 456.898 216.068 444.204 204.04C431.51 192.013 427.945 194.463 427.945 194.463Z" fill="#FBEB46"/>
<path fill-rule="evenodd" clip-rule="evenodd" d="M270.044 54.804C270.044 54.804 291.353 16.1007 367.454 19.5796C443.556 23.0585 456.602 24.798 470.519 28.2769C484.435 31.7561 637.687 86.4124 646.036 100.606C646.036 100.606 689.771 142.293 691.998 146.078C694.224 149.863 733.214 203.717 728.317 243.794C723.419 283.871 691.134 290.107 691.134 290.107L694.475 275.411C694.475 275.411 686.619 268.535 684.766 266.398C682.913 264.261 679.352 249.726 679.495 247.446C679.635 245.166 673.536 236.086 631.498 229.318C631.498 229.318 615.741 214.833 607.948 205.927C600.154 197.021 569.313 187.037 564.753 185.897C560.193 184.757 540.47 173.511 540.195 170.045C539.92 166.58 521.355 159.967 519.021 160.608C516.684 161.251 501.59 134.707 474.693 130.61C447.796 126.513 396.871 103.165 392.995 97.1234C389.119 91.0815 333.021 74.2126 319.616 81.3261C306.211 88.4396 309.677 87.0716 309.677 87.0716L305.389 85.4302C305.389 85.4302 300.921 63.9986 291.162 60.9891C281.405 57.9793 283.1 59.0614 282.281 61.6295C281.465 64.1976 270.044 54.804 270.044 54.804Z" fill="#FFF4E6"/>
<path fill-rule="evenodd" clip-rule="evenodd" d="M376.593 89.373C376.593 89.373 450.77 96.6688 460.954 101.077C471.138 105.485 536.992 122.513 546.871 132.013C556.75 141.512 622.793 173.052 640.122 208.619L657.37 235.132C657.37 235.132 623.905 229.84 622.348 220.502C620.794 211.163 608.342 201.669 601.183 199.334C594.023 196.999 554.575 181.116 549.907 179.365C545.237 177.614 534.342 162.439 528.311 162.439C522.278 162.439 518.48 161.225 518.48 161.225C518.48 161.225 506.82 136.725 469.93 130.966C433.044 125.207 431.642 119.76 428.531 116.491C425.418 113.222 390.85 97.5689 390.85 97.5689L376.593 89.373Z" fill="#FFE1C9"/>
<path fill-rule="evenodd" clip-rule="evenodd" d="M269.569 53.4061C269.569 53.4061 371.863 30.0749 451.359 50.9743C527.795 71.0705 570.894 105.384 599.465 132.179C634.179 164.736 644.638 192.187 651.203 209.211L662.436 238.347C662.436 238.347 676.746 239.363 677.619 243.347C678.491 247.332 680.619 259.396 683.855 266.12C687.095 272.844 696.182 275.459 692.073 288.284C692.073 288.284 725.717 267.116 725.329 254.859C724.938 242.602 724.896 182.475 704.223 160.892C683.554 139.308 643.389 80.6391 533.667 45.9648C423.945 11.2905 376.273 17.0853 369.586 17.0853C362.898 17.0853 297.551 28.6041 292.725 29.8493C287.899 31.0945 269.569 53.4061 269.569 53.4061Z" fill="#F4C596"/>
<path fill-rule="evenodd" clip-rule="evenodd" d="M394.182 97.377C394.182 97.377 461.916 107.139 501.163 122.678C540.411 138.218 583.244 163.32 593.007 172.883C602.769 182.446 645.905 227.788 647.022 233.734C647.022 233.734 627.897 235.536 625.504 226.61C625.504 226.61 619.572 219.526 616.205 213.814C612.84 208.102 610.085 206.878 605.19 203.409C600.292 199.941 600.191 199.839 600.191 199.839C600.191 199.839 559.655 184.036 556.069 182.443C552.483 180.849 545.111 183.239 543.519 174.075C541.926 164.911 523.665 166.604 521.241 163.289C518.818 159.974 502.514 145.391 500.602 143.096C498.689 140.8 498.561 140.8 498.561 140.8C498.561 140.8 463.252 129.915 460.861 129.915C458.471 129.915 415.796 111.116 414.672 109.994C413.551 108.872 394.182 97.377 394.182 97.377Z" fill="#AA7744"/>
<path fill-rule="evenodd" clip-rule="evenodd" d="M96.3797 445.525L94.6764 441.96C94.6764 441.96 71.5926 452.927 69.1903 459.717C66.7878 466.506 50.8946 520.151 59.8706 538.43C68.847 556.709 80.1999 569.469 83.3008 569.959C86.4017 570.449 128.968 590.981 147.328 593.276C165.689 595.571 238.619 603.986 244.739 603.986C250.862 603.986 399.055 605.384 416.906 599.518C434.758 593.655 537.29 595.989 570.762 571.444L589.749 562.055C589.749 562.055 625.662 539.736 627.882 532.815C630.099 525.894 649.316 485.185 646.543 469.028C643.767 452.871 638.741 430.309 634.25 428.741C629.758 427.175 618.373 419.967 612.944 422.37C607.511 424.772 609.447 441.709 609.447 441.709L591.303 465.974L564.424 483.213C530.178 495.599 492.123 502.398 453.677 508.622L343.037 518.029L212.667 509.244L137.507 489.031L102.961 458.181L95.6547 441.258" fill="#FFF4E6"/>
<path fill-rule="evenodd" clip-rule="evenodd" d="M67.6619 458.683C67.6619 458.683 63.3612 497.811 100.87 522.425C112.641 530.149 128.178 538.917 149.711 541.415C239.86 551.874 327.586 556.921 401.73 552.872C467.011 549.304 547.959 543.408 594.579 517.109C636.091 493.693 636.282 481.184 636.282 481.184L647.297 464.046L644.503 487.612L635.798 519.541L625.567 535.588L600.059 558.633C600.059 558.633 584.463 567.559 548.676 577.818C537.542 581.009 523.515 584.38 509.737 586.893C478.704 592.55 448.128 596.545 448.128 596.545L399.196 601.861C399.196 601.861 329.262 604.81 321.343 604.634C307 604.314 194.795 603.358 164.832 595.388C152.216 592.033 135.411 589.938 121.844 585.763C103.192 580.023 89.3822 572.564 89.3822 572.564C89.3822 572.564 51.3608 550.938 58.093 514.829C58.093 514.829 58.8559 500.395 60.0858 493.176C61.6807 483.82 67.6619 458.683 67.6619 458.683Z" fill="#F4C596"/>
<path d="M608.988 432.959C608.988 432.959 593.08 366.602 580.961 356.019C568.839 345.434 572.46 335.617 571.685 331.448C570.911 327.279 573.95 286.712 556.378 266.195" stroke="#585858" stroke-width="4.38797" stroke-miterlimit="1.5" stroke-linecap="round" stroke-linejoin="round"/>
<path d="M409.472 173.4C409.472 173.4 356.646 154.851 304.627 161.706C252.607 168.561 258.656 173.4 244.946 177.836C231.236 182.272 215.508 191.546 208.25 195.176" stroke="#585858" stroke-width="4.39569" stroke-miterlimit="1.5" stroke-linecap="round" stroke-linejoin="round"/>
<path d="M206.789 196.395C206.789 196.395 185.979 206.156 169.475 209.151C161.427 210.612 154.362 208.874 151.316 206.674C142.026 199.964 107.185 168.736 85.506 159.446C63.8273 150.155 21.5022 137.509 21.5022 137.509C21.5022 137.509 20.8571 171.301 24.7283 184.205C28.5996 197.109 43.1164 220.014 46.9877 224.853C50.859 229.692 88.289 274.016 92.16 277.886" stroke="#585858" stroke-width="4.39569" stroke-miterlimit="1.5" stroke-linecap="round" stroke-linejoin="round"/>
<path d="M91.7998 277.542C91.7998 277.542 101.881 287.624 103.494 310.61C105.107 333.595 103.897 381.18 107.527 394.89C111.156 408.6 109.946 409.003 102.284 423.924C94.6228 438.844 95.8324 440.861 98.252 446.102" stroke="#585858" stroke-width="4.39569" stroke-miterlimit="1.5" stroke-linecap="round" stroke-linejoin="round"/>
<path d="M93.6477 440.986C93.6477 440.986 71.9729 447.539 66.4282 460.646C60.8835 473.749 50.8024 528.189 59.3715 540.79C67.9405 553.392 71.9729 596.237 244.363 604.807C416.752 613.375 549.907 583.077 574.48 571.736C593.156 563.115 606.564 554.587 616.189 546.579C619.228 544.05 623.044 540.743 624.993 538.005C625.411 537.42 627.081 535.698 627.081 535.698L627.527 535.125C639.483 524.074 649.825 486.584 647.168 462.349C644.264 435.894 635.553 425.573 627.165 423.637C618.777 421.7 608.04 422.501 608.04 422.501C608.04 422.501 619.208 455.667 568.109 481.217C517.007 506.766 353.73 516.397 353.73 516.397" stroke="#585858" stroke-width="4.39569" stroke-miterlimit="1.5" stroke-linecap="round" stroke-linejoin="round"/>
<path d="M352.235 516.49C352.235 516.49 153.838 517.297 118.352 471.326" stroke="#585858" stroke-width="4.39569" stroke-miterlimit="1.5" stroke-linecap="round" stroke-linejoin="round"/>
<path d="M108.101 463.819L102.08 454.511" stroke="#585858" stroke-width="4.39569" stroke-miterlimit="1.5" stroke-linecap="round" stroke-linejoin="round"/>
<path fill-rule="evenodd" clip-rule="evenodd" d="M250.614 356.342C250.614 356.342 251 342.925 255.36 339.222C259.719 335.523 266.326 332.618 271.35 338.168C276.37 343.717 279.268 361.607 279.268 361.607L276.755 361.834C276.755 361.834 268.983 362.032 265.998 361.509C261.219 360.672 250.614 356.342 250.614 356.342Z" fill="black"/>
<path fill-rule="evenodd" clip-rule="evenodd" d="M418.656 344.757C418.656 344.757 422.762 329.086 429.36 325.308C442.646 317.701 458.077 331.974 460.889 340.162C460.889 340.162 449.14 343.116 449.298 348.271C449.458 353.427 418.656 344.757 418.656 344.757Z" fill="black"/>
<path fill-rule="evenodd" clip-rule="evenodd" d="M223.176 334.246C223.176 334.246 234.241 352.579 244.15 356.213C254.062 359.847 276.193 369.923 291.391 359.351C306.586 348.781 303.117 348.945 303.117 346.797C303.117 344.651 291.556 330.777 289.574 330.777C287.59 330.777 264.213 316.514 249.735 321.319C235.257 326.121 223.176 334.246 223.176 334.246Z" stroke="#585858" stroke-width="4.39569" stroke-miterlimit="1.5" stroke-linecap="round" stroke-linejoin="round"/>
<path fill-rule="evenodd" clip-rule="evenodd" d="M401.909 337.417C401.909 337.417 411.985 342.207 418.263 345.676C424.539 349.143 446.419 348.441 448.732 348.109C451.041 347.78 458.563 341.215 463.024 339.234C467.483 337.253 473.594 333.948 477.395 329.322C481.193 324.699 489.781 298.271 471.612 291.664C453.444 285.057 430.65 304.218 423.878 308.676C417.107 313.138 395.634 328.165 401.909 337.417Z" stroke="#585858" stroke-width="4.39569" stroke-miterlimit="1.5" stroke-linecap="round" stroke-linejoin="round"/>
<path d="M368.067 379.698C375.219 379.698 381.016 376.74 381.016 373.091C381.016 369.442 375.219 366.484 368.067 366.484C360.915 366.484 355.117 369.442 355.117 373.091C355.117 376.74 360.915 379.698 368.067 379.698Z" fill="#585858" stroke="#585858" stroke-width="4.39569" stroke-miterlimit="1.5" stroke-linecap="round" stroke-linejoin="round"/>
<path d="M368.067 379.698L374.211 423.843C374.211 423.843 365.333 443.249 357.073 445.935" stroke="#585858" stroke-width="4.39569" stroke-miterlimit="1.5" stroke-linecap="round" stroke-linejoin="round"/>
<path d="M374.211 423.843C374.211 423.843 391.142 441.186 399.814 441.393" stroke="#585858" stroke-width="4.39569" stroke-miterlimit="1.5" stroke-linecap="round" stroke-linejoin="round"/>
<path d="M325.311 402.36C325.311 402.36 309.348 390.096 301.208 399.082C293.068 408.068 295.922 411.346 289.157 407.855C282.391 404.368 265.795 403.31 265.057 406.693" stroke="#585858" stroke-width="4.39569" stroke-miterlimit="1.5" stroke-linecap="round" stroke-linejoin="round"/>
<path d="M317.602 446.695C317.602 446.695 307.483 445.251 300.052 453.508" stroke="#585858" stroke-width="4.39569" stroke-miterlimit="1.5" stroke-linecap="round" stroke-linejoin="round"/>
<path d="M419.697 393.844C419.697 393.844 433.736 384.966 438.693 387.856C443.648 390.745 449.015 393.223 455.209 393.638C461.404 394.05 465.74 394.05 467.596 391.985" stroke="#585858" stroke-width="4.39569" stroke-miterlimit="1.5" stroke-linecap="round" stroke-linejoin="round"/>
<path d="M439.725 429.563C439.725 429.563 447.156 423.78 456.656 426.258" stroke="#585858" stroke-width="4.39569" stroke-miterlimit="1.5" stroke-linecap="round" stroke-linejoin="round"/>
<path d="M688.941 288.927C688.941 288.927 695.548 308.748 674.14 305.578C674.14 305.578 665.289 299.368 657.887 300.16C650.488 300.952 640.711 307.956 639.653 312.316C638.595 316.676 632.517 322.359 628.026 321.039C623.534 319.715 621.021 312.713 617.982 308.354C614.943 303.991 612.17 303.465 606.487 303.199C600.806 302.936 592.083 301.481 591.82 294.345C591.557 287.212 582.957 276.245 578.597 275.057C574.237 273.868 548.736 272.679 551.378 248.63C551.378 248.63 550.263 239.769 545.111 235.012C539.956 230.255 533.057 228.148 530.415 225.638C527.77 223.127 520.312 217.446 523.88 204.629C523.88 204.629 522.323 192.775 508.927 201.367C495.53 209.959 475.966 220.953 457.592 210.836C439.217 200.719 423.777 188.931 418.449 184.787C413.121 180.643 401.969 165.652 410.638 153.707C410.638 153.707 421.948 144.933 418.141 140.493C414.337 136.053 396.082 125.787 379.563 129.751C363.047 133.715 364.174 139.387 346.516 136.005C346.516 136.005 332.358 135.389 322.281 133.406C312.205 131.424 297.01 121.844 297.342 115.898C297.342 115.898 298.202 113.546 298.271 108.607C298.337 103.668 308.419 99.0271 313.397 98.1181C318.376 97.2088 316.138 90.8833 309.537 89.0431C302.933 87.203 296.98 87.7441 291.891 89.4761C286.805 91.2081 273.923 84.7132 280.527 72.8063C287.128 60.899 262.451 49.1024 249.936 63.6479C237.419 78.1935 241.309 82.4218 231.669 82.7601C222.026 83.0983 206.431 86.2721 199.719 86.3803C193.007 86.4888 189.329 82.4837 186.296 77.3959C183.266 72.3084 163.89 68.4115 158.803 78.9115C153.715 89.4113 159.239 92.0663 149.368 91.46C139.495 90.854 132.654 82.6271 126.592 88.6024C120.53 94.5776 127.458 105.575 130.836 107.827C134.213 110.079 123.596 114.511 115.658 117.975C107.72 121.439 108.009 126.202 110.318 128.944" stroke="#585858" stroke-width="4.39569" stroke-miterlimit="1.5" stroke-linecap="round" stroke-linejoin="round"/>
<path d="M75.6982 153.719C75.6982 153.719 79.7575 120.569 103.662 127.334C103.662 127.334 115.582 131.522 118.237 132.33C120.893 133.138 128.86 131.637 130.823 134.524C132.785 137.41 144.254 125.292 161.574 140.995C161.574 140.995 165.961 145.614 173.235 143.074C180.511 140.533 209.954 146.218 213.877 156.032C217.804 165.846 220.92 168.733 225.657 170.118" stroke="#585858" stroke-width="4.39569" stroke-miterlimit="1.5" stroke-linecap="round" stroke-linejoin="round"/>
<path d="M233.736 173.583L239.396 177.509" stroke="#585858" stroke-width="4.39569" stroke-miterlimit="1.5" stroke-linecap="round" stroke-linejoin="round"/>
<path d="M131.361 135.688C131.361 135.688 119.453 142.544 121.017 151.444C122.581 160.345 125.708 171.771 116.206 174.898" stroke="#585858" stroke-width="4.39569" stroke-miterlimit="1.5" stroke-linecap="round" stroke-linejoin="round"/>
<path d="M116.928 133.522C116.928 133.522 85.897 144.106 96.1203 161.907" stroke="#585858" stroke-width="4.39569" stroke-miterlimit="1.5" stroke-linecap="round" stroke-linejoin="round"/>
<path d="M221.359 162.893C221.359 162.893 230.462 140.87 253.659 151.148C276.857 161.425 279.206 163.187 279.206 163.187" stroke="#585858" stroke-width="4.39569" stroke-miterlimit="1.5" stroke-linecap="round" stroke-linejoin="round"/>
<path d="M209.027 112.975L238.978 126.482" stroke="#585858" stroke-width="4.39569" stroke-miterlimit="1.5" stroke-linecap="round" stroke-linejoin="round"/>
<path d="M262.469 122.077C262.469 122.077 269.515 131.767 276.268 132.355" stroke="#585858" stroke-width="4.39569" stroke-miterlimit="1.5" stroke-linecap="round" stroke-linejoin="round"/>
<path d="M152.061 172.29C152.061 172.29 163.219 182.861 167.33 183.155" stroke="#585858" stroke-width="4.39569" stroke-miterlimit="1.5" stroke-linecap="round" stroke-linejoin="round"/>
<path d="M447.948 164.248C447.948 164.248 447.58 177.829 454.187 180.031" stroke="#585858" stroke-width="4.39569" stroke-miterlimit="1.5" stroke-linecap="round" stroke-linejoin="round"/>
<path d="M573.846 249.77C573.846 249.77 589.262 248.302 590.729 260.781" stroke="#585858" stroke-width="4.39569" stroke-miterlimit="1.5" stroke-linecap="round" stroke-linejoin="round"/>
<path d="M638.078 258.945C638.078 258.945 630.371 270.691 641.383 276.196" stroke="#585858" stroke-width="4.39569" stroke-miterlimit="1.5" stroke-linecap="round" stroke-linejoin="round"/>
<path d="M689.162 287.935C689.162 287.935 693.612 276.989 688.681 274.703C683.747 272.417 677.051 255.062 677.804 249.049C678.557 243.035 668.032 239.84 658.261 237.021C648.486 234.202 630.366 236.783 621.912 224.755C613.455 212.728 605.749 200.889 594.662 199.009C583.573 197.13 561.597 184.695 551.966 181.641C542.335 178.587 539.281 168.486 528.945 164.493C518.609 160.499 519.314 166.372 514.38 158.62C509.45 150.868 486.596 132.084 467.803 132.648C449.01 133.211 392.451 99.2699 387.046 95.5116C381.643 91.753 327.657 76.1556 316.084 83.6725" stroke="#585858" stroke-width="4.39569" stroke-miterlimit="1.5" stroke-linecap="round" stroke-linejoin="round"/>
<path d="M281.638 68.1783C281.638 68.1783 283.804 56.8726 291.499 62.8865C299.197 68.9 305.092 83.3329 303.287 85.3777" stroke="#585858" stroke-width="4.39569" stroke-miterlimit="1.5" stroke-linecap="round" stroke-linejoin="round"/>
<path d="M369.276 88.6514C369.276 88.6514 588.076 94.5543 657.693 234.865" stroke="#585858" stroke-width="4.39452" stroke-miterlimit="1.5" stroke-linecap="round" stroke-linejoin="round"/>
<path d="M691.95 291.897C691.95 291.897 735.996 272.934 727.432 223.995C718.868 175.055 710.916 168.938 704.796 159.15C698.679 149.362 662.782 111.344 644.491 98.8155C626.2 86.287 501.378 16.1346 382.751 16.526C382.751 16.526 300.918 16.6106 280.67 38.0593L265.161 56.0966" stroke="#585858" stroke-width="4.39569" stroke-miterlimit="1.5" stroke-linecap="round" stroke-linejoin="round"/>
<path d="M382.004 47.7529C382.004 47.7529 378.086 55.5833 391.79 52.451" stroke="#585858" stroke-width="4.39569" stroke-miterlimit="1.5" stroke-linecap="round" stroke-linejoin="round"/>
<path d="M540.175 84.1631C540.175 84.1631 551.139 101.39 560.534 92.7764" stroke="#585858" stroke-width="4.39569" stroke-miterlimit="1.5" stroke-linecap="round" stroke-linejoin="round"/>
<path d="M674.856 159.726L677.205 164.424" stroke="#585858" stroke-width="4.39569" stroke-miterlimit="1.5" stroke-linecap="round" stroke-linejoin="round"/>
<path d="M680.337 201.227C680.337 201.227 686.992 218.062 689.732 208.665" stroke="#585858" stroke-width="4.39569" stroke-miterlimit="1.5" stroke-linecap="round" stroke-linejoin="round"/>
<path d="M75.5567 485.657C75.5567 485.657 73.6774 534.518 184.554 545.168" stroke="#585858" stroke-width="4.39569" stroke-miterlimit="1.5" stroke-linecap="round" stroke-linejoin="round"/>
<path d="M644.975 466.864C644.975 466.864 620.546 508.209 594.234 515.728" stroke="#585858" stroke-width="4.39569" stroke-miterlimit="1.5" stroke-linecap="round" stroke-linejoin="round"/>
<path d="M362.213 515.623C362.213 515.623 358.687 465.588 394.928 458.532C431.169 451.477 435.341 464.625 451.376 461.419C467.414 458.213 477.995 446.343 489.864 445.704C501.73 445.061 533.89 449.95 565.646 480.741" stroke="#585858" stroke-width="4.39569" stroke-miterlimit="1.5" stroke-linecap="round" stroke-linejoin="round"/>
</g>
<defs>
<clipPath id="clip0_126_1304">
<rect width="743" height="626" fill="white"/>
</clipPath>
</defs>
</svg>
