<svg width="1440" height="304" viewBox="0 0 1440 304" fill="none" xmlns="http://www.w3.org/2000/svg">
<g clip-path="url(#clip0_122_974)">
<path fill-rule="evenodd" clip-rule="evenodd" d="M0 303.471C0 303.471 450.34 210.845 656.479 251.092C656.479 251.092 688.58 66.7053 920.417 69.2682C920.417 69.2682 956.195 -6.50372 1051.66 0.000489533H1439.57V303.471H0Z" fill="#F9EDF1"/>
<path fill-rule="evenodd" clip-rule="evenodd" d="M504.177 239.132L656.975 251.091C656.975 251.091 706.727 56.5705 919.612 80.8634C919.612 80.8634 970.052 0.00261736 1012.85 6.71863e-05L746.3 -0.396484C746.3 -0.396484 549.912 55.3158 504.177 239.132Z" fill="#FFFAFB"/>
<path fill-rule="evenodd" clip-rule="evenodd" d="M719.786 303.47C719.786 303.47 722.066 229.654 799.712 231.753C799.712 231.753 829.792 130.09 927.026 159.585C927.026 159.585 974.739 109.84 1017.41 164.061C1017.41 164.061 908.838 258.366 911.635 303.47H719.786Z" fill="white"/>
<path fill-rule="evenodd" clip-rule="evenodd" d="M1056.63 144.381C1056.63 144.381 1046.89 120.109 1069.89 117.276C1069.89 117.276 1080.34 90.33 1100.92 110.262C1100.92 110.262 1120.34 102.051 1127.51 121.251C1127.51 121.251 1109.88 126.83 1091.88 132.641C1077.3 137.35 1062.49 142.211 1056.63 144.381Z" fill="#81C794" stroke="#81C794" stroke-width="1.27509" stroke-miterlimit="1.5" stroke-linecap="round" stroke-linejoin="round"/>
<path fill-rule="evenodd" clip-rule="evenodd" d="M929.702 254.786C929.702 254.786 903.733 217.685 929.702 208.832C929.702 208.832 920.351 168.886 962.569 177.527C962.569 177.527 992.19 154.897 1010.48 170.329C1010.48 170.329 941.802 223.503 929.702 254.786Z" fill="#81C794"/>
<mask id="mask0_122_974" style="mask-type:luminance" maskUnits="userSpaceOnUse" x="907" y="101" width="533" height="203">
<path d="M1439.58 101.385H907.562V303.471H1439.58V101.385Z" fill="white"/>
</mask>
<g mask="url(#mask0_122_974)">
<path d="M1264.76 549.876C1462.03 549.876 1621.95 449.478 1621.95 325.63C1621.95 201.783 1462.03 101.385 1264.76 101.385C1067.48 101.385 907.564 201.783 907.564 325.63C907.564 449.478 1067.48 549.876 1264.76 549.876Z" fill="#8CCE9E"/>
</g>
<path fill-rule="evenodd" clip-rule="evenodd" d="M562.326 91.2348C562.326 91.2348 590.27 61.9295 605.93 49.1812C621.781 36.2774 651.646 15.7409 657.431 13.8129C669.535 9.77728 588.264 15.913 562.326 91.2348Z" fill="#F9EDF1"/>
<path fill-rule="evenodd" clip-rule="evenodd" d="M1187.72 107.484C1187.72 107.484 1375.96 102.389 1439.57 135.946C1439.57 135.946 1439.51 119.531 1439.57 101.385C1439.66 72.7416 1422.5 48.1975 1381.15 49.0008C1381.15 49.0008 1321.5 -35.2046 1225.75 19.883C1225.75 19.883 1172.04 14.2433 1184.5 49.0008C1184.5 49.0008 1138.54 83.3618 1187.72 107.484Z" fill="#B7C9F5"/>
<path fill-rule="evenodd" clip-rule="evenodd" d="M1173.57 303.47C1173.57 303.47 1171.8 254.025 1202.28 253.28C1202.28 253.28 1235.82 121.887 1395.67 179.526C1395.67 179.526 1405.08 135.987 1439.57 148.15V303.47H1173.57Z" fill="#7AB89F" stroke="#5FA28C" stroke-width="1.27509" stroke-miterlimit="1.5" stroke-linecap="round" stroke-linejoin="round"/>
<path fill-rule="evenodd" clip-rule="evenodd" d="M1202.28 303.471V91.2354L1298.93 15.7031L1383.95 91.2354V303.471H1202.28Z" fill="#EEEEEE"/>
<path fill-rule="evenodd" clip-rule="evenodd" d="M1054.58 303.471V202.428L1116.65 148.15L1173.57 202.428V303.471H1054.58Z" fill="#EEEEEE"/>
<path fill-rule="evenodd" clip-rule="evenodd" d="M1272.59 98.7872V155.84C1272.59 157.908 1270.91 159.586 1268.84 159.586H1229.5C1227.43 159.586 1225.75 157.908 1225.75 155.84V98.7872C1225.75 96.7203 1227.43 95.041 1229.5 95.041H1268.84C1270.91 95.041 1272.59 96.7203 1272.59 98.7872Z" fill="#3F3D56"/>
<path fill-rule="evenodd" clip-rule="evenodd" d="M1091.02 215.406V243.99C1091.02 245.008 1090.2 245.834 1089.18 245.834H1069.81C1068.79 245.834 1067.97 245.008 1067.97 243.99V215.406C1067.97 214.388 1068.79 213.562 1069.81 213.562H1089.18C1090.2 213.562 1091.02 214.388 1091.02 215.406Z" fill="#3F3D56"/>
<path fill-rule="evenodd" clip-rule="evenodd" d="M1128.49 215.406V243.99C1128.49 245.008 1127.66 245.834 1126.64 245.834H1107.28C1106.26 245.834 1105.43 245.008 1105.43 243.99V215.406C1105.43 214.388 1106.26 213.562 1107.28 213.562H1126.64C1127.66 213.562 1128.49 214.388 1128.49 215.406Z" fill="#3F3D56"/>
<path fill-rule="evenodd" clip-rule="evenodd" d="M1358.01 112.548V150.874C1358.01 151.35 1357.62 151.735 1357.14 151.735H1348.06C1347.58 151.735 1347.2 151.35 1347.2 150.874V112.548C1347.2 112.073 1347.58 111.687 1348.06 111.687H1357.14C1357.62 111.687 1358.01 112.073 1358.01 112.548Z" fill="#3F3D56"/>
<path fill-rule="evenodd" clip-rule="evenodd" d="M1236.56 206.651V244.971C1236.56 245.448 1236.17 245.835 1235.7 245.835H1226.62C1226.14 245.835 1225.75 245.448 1225.75 244.971V206.651C1225.75 206.174 1226.14 205.786 1226.62 205.786H1235.7C1236.17 205.786 1236.56 206.174 1236.56 206.651Z" fill="#7D79A8"/>
<path fill-rule="evenodd" clip-rule="evenodd" d="M1156.79 254.144V292.464C1156.79 292.941 1156.4 293.328 1155.92 293.328H1146.85C1146.37 293.328 1145.98 292.941 1145.98 292.464V254.144C1145.98 253.667 1146.37 253.279 1146.85 253.279H1155.92C1156.4 253.279 1156.79 253.667 1156.79 254.144Z" fill="#7D79A8"/>
<path fill-rule="evenodd" clip-rule="evenodd" d="M1104.19 260.008V282.226C1104.19 283.394 1103.24 284.341 1102.07 284.341H1071.83C1070.66 284.341 1069.71 283.394 1069.71 282.226V260.008C1069.71 258.84 1070.66 257.892 1071.83 257.892H1102.07C1103.24 257.892 1104.19 258.84 1104.19 260.008Z" fill="#7D79A8"/>
<path fill-rule="evenodd" clip-rule="evenodd" d="M1279.45 207.683V243.937C1279.45 244.985 1278.6 245.835 1277.55 245.835H1257.62C1256.58 245.835 1255.73 244.985 1255.73 243.937V207.683C1255.73 206.637 1256.58 205.786 1257.62 205.786H1277.55C1278.6 205.786 1279.45 206.637 1279.45 207.683Z" fill="#7D79A8"/>
<path fill-rule="evenodd" clip-rule="evenodd" d="M1363.5 232.965V269.219C1363.5 270.266 1362.65 271.116 1361.6 271.116H1341.68C1340.63 271.116 1339.78 270.266 1339.78 269.219V232.965C1339.78 231.918 1340.63 231.067 1341.68 231.067H1361.6C1362.65 231.067 1363.5 231.918 1363.5 232.965Z" fill="#7D79A8"/>
<path fill-rule="evenodd" clip-rule="evenodd" d="M0 249.853C0 249.853 73.5635 238.647 108.788 275.471C108.788 275.471 199.281 245.57 247.313 283.996C247.313 283.996 303.812 276.954 311.256 303.469H0V249.853Z" fill="#B7C9F5"/>
</g>
<defs>
<clipPath id="clip0_122_974">
<rect width="1439.57" height="303.47" fill="white"/>
</clipPath>
</defs>
</svg>
